<?xml version="1.0" encoding="UTF-8"?><svg xmlns="http://www.w3.org/2000/svg" xmlns:xlink="http://www.w3.org/1999/xlink" width="375pt" zoomAndPan="magnify" viewBox="0 0 375 374.999991" height="374.999991pt" preserveAspectRatio="xMidYMid meet" version="1.2"><defs><clipPath xml:id="clip1" id="clip1"><path d="M 133 231 L 152 231 L 152 257.15625 L 133 257.15625 Z M 133 231 "/></clipPath><clipPath xml:id="clip2" id="clip2"><path d="M 113 117.65625 L 164 117.65625 L 164 210 L 113 210 Z M 113 117.65625 "/></clipPath></defs><g xml:id="surface1" id="surface1"><g clip-rule="nonzero" clip-path="url(#clip1)"><path style=" stroke:none;fill-rule:nonzero;fill:rgb(6.269836%,72.549438%,50.588989%);fill-opacity:1;" d="M 150.15625 234.054688 C 149.421875 233.558594 148.917969 232.769531 148.75 231.878906 C 138.679688 242.355469 134.042969 251.605469 133.730469 252.253906 C 132.917969 253.925781 133.613281 255.9375 135.285156 256.75 C 135.761719 256.980469 136.265625 257.09375 136.761719 257.09375 C 138.007812 257.09375 139.214844 256.398438 139.796875 255.203125 C 139.863281 255.066406 143.59375 247.664062 151.613281 238.773438 C 150.964844 237.527344 150.308594 235.40625 150.15625 234.054688 Z M 150.15625 234.054688 "/></g><path style=" stroke:none;fill-rule:nonzero;fill:rgb(6.269836%,72.549438%,50.588989%);fill-opacity:1;" d="M 260.644531 202.726562 C 259.59375 201.617188 234.59375 175.550781 200.464844 175.550781 C 198.113281 175.550781 195.738281 175.679688 193.410156 175.933594 C 177.699219 177.632812 165.804688 183.605469 158.058594 193.679688 C 145.53125 209.964844 148.578125 230.894531 148.714844 231.78125 C 148.859375 232.71875 149.394531 233.539062 150.160156 234.058594 C 150.320312 235.496094 150.839844 237.582031 151.535156 238.773438 C 159.125 229.46875 169.296875 219.113281 182.097656 213.085938 C 203.757812 202.878906 226.335938 203.507812 227.277344 203.558594 C 229.140625 203.625 230.59375 205.175781 230.53125 207.039062 C 230.46875 208.859375 228.972656 210.296875 227.164062 210.296875 C 227.089844 210.296875 227.492188 210.285156 226.140625 210.285156 C 221.8125 210.285156 202.777344 210.789062 184.976562 219.179688 C 172.972656 224.832031 163.359375 234.132812 156.203125 243.078125 C 157.269531 243.898438 158.160156 244.445312 158.4375 244.609375 C 159.042969 244.933594 173.382812 252.539062 191.585938 252.539062 C 193.875 252.539062 196.15625 252.417969 198.363281 252.175781 C 239.648438 247.636719 260.328125 208.257812 261.191406 206.585938 C 261.839844 205.308594 261.625 203.765625 260.644531 202.726562 Z M 260.644531 202.726562 "/><path style=" stroke:none;fill-rule:nonzero;fill:rgb(6.269836%,72.549438%,50.588989%);fill-opacity:1;" d="M 137.285156 209.675781 C 136.980469 209.761719 136.664062 209.808594 136.351562 209.808594 C 135.753906 209.808594 135.15625 209.648438 134.632812 209.335938 C 134.355469 209.171875 134.117188 208.972656 133.839844 208.800781 C 135.457031 215.300781 136.574219 221.117188 135.667969 226.617188 C 135.363281 228.453125 136.609375 230.191406 138.449219 230.488281 C 138.632812 230.523438 138.820312 230.535156 139 230.535156 C 140.625 230.535156 142.054688 229.363281 142.328125 227.714844 C 143.40625 221.183594 142.210938 214.609375 140.539062 207.78125 C 139.519531 208.683594 138.117188 209.441406 137.285156 209.675781 Z M 137.285156 209.675781 "/><g clip-rule="nonzero" clip-path="url(#clip2)"><path style=" stroke:none;fill-rule:nonzero;fill:rgb(6.269836%,72.549438%,50.588989%);fill-opacity:1;" d="M 163.089844 156.089844 C 159.972656 137.253906 143.4375 119.773438 142.734375 119.039062 C 141.445312 117.691406 139.308594 117.644531 137.960938 118.925781 C 136.949219 119.890625 113.101562 142.925781 113.101562 169.96875 C 113.101562 187.398438 120.546875 201.015625 134.632812 209.339844 C 135.160156 209.652344 135.753906 209.808594 136.351562 209.808594 C 136.664062 209.808594 136.984375 209.765625 137.285156 209.679688 C 138.121094 209.441406 139.542969 208.675781 140.566406 207.765625 C 139.714844 204.808594 138.421875 201.988281 137.410156 198.910156 C 132.621094 184.34375 127.191406 167.828125 134.765625 150.828125 C 135.527344 149.132812 137.511719 148.363281 139.21875 149.121094 C 140.921875 149.878906 141.6875 151.867188 140.929688 153.570312 C 134.410156 168.191406 139.195312 182.738281 143.820312 196.804688 C 144.144531 197.792969 144.464844 198.773438 144.785156 199.753906 C 145.699219 198.8125 146.832031 197.78125 147.9375 196.9375 C 152.058594 193.855469 166.6875 177.890625 163.089844 156.089844 Z M 163.089844 156.089844 "/></g></g></svg>